<?xml version="1.0" standalone="no"?>
<!DOCTYPE svg PUBLIC "-//W3C//DTD SVG 20010904//EN"
 "http://www.w3.org/TR/2001/REC-SVG-20010904/DTD/svg10.dtd">
<svg version="1.0" xmlns="http://www.w3.org/2000/svg"
 width="16.000000pt" height="16.000000pt" viewBox="0 0 16.000000 16.000000"
 preserveAspectRatio="xMidYMid meet">
<metadata>
Created by potrace 1.11, written by Peter Selinger 2001-2013
</metadata>
<g transform="translate(0.000000,16.000000) scale(0.003704,-0.003704)"
fill="#000000" stroke="none">
<path d="M1997 4121 c-124 -34 -235 -101 -381 -227 -27 -24 -54 -40 -60 -37
-6 3 -8 3 -4 -2 14 -15 -147 -116 -171 -108 -8 3 -11 1 -8 -5 17 -26 -143 -68
-313 -81 -118 -9 -121 -10 -142 -41 -32 -46 -14 -121 38 -163 14 -10 21 -23
18 -29 -4 -6 -3 -8 2 -5 6 3 77 -48 160 -114 147 -118 234 -199 268 -251 l18
-27 -48 -51 c-25 -27 -51 -50 -55 -50 -18 0 -154 138 -235 239 -113 142 -156
192 -176 210 -9 8 -15 17 -13 21 2 3 -17 17 -43 31 -26 13 -50 29 -54 34 -5 6
-8 6 -8 -2 0 -6 -12 -13 -27 -15 -44 -5 -63 -43 -68 -138 -6 -94 -29 -228 -47
-275 -20 -51 -99 -185 -109 -185 -6 0 -8 -4 -5 -8 6 -10 -99 -143 -108 -137
-3 3 -4 2 -1 -1 2 -4 -13 -26 -34 -51 -125 -142 -190 -333 -178 -528 4 -55 13
-125 21 -155 20 -73 77 -184 123 -242 129 -159 182 -231 176 -241 -3 -5 -2 -7
4 -4 11 7 59 -70 98 -156 30 -66 54 -185 59 -302 4 -72 7 -83 34 -113 54 -59
112 -36 215 86 40 47 82 97 94 109 13 13 23 26 23 29 0 15 105 132 113 127 6
-3 7 -2 4 4 -4 6 15 30 41 53 26 24 59 54 73 68 l27 24 51 -50 c28 -27 51 -56
51 -64 0 -32 -310 -305 -332 -292 -6 4 -8 3 -4 -4 3 -6 -5 -19 -20 -29 -14
-10 -57 -48 -95 -85 -65 -64 -69 -71 -69 -112 0 -67 38 -96 126 -96 79 0 243
-29 306 -55 59 -24 149 -76 176 -102 7 -7 18 -13 23 -13 6 0 7 -5 3 -12 -4 -6
-3 -8 4 -5 11 8 172 -119 172 -136 0 -6 3 -8 6 -4 3 3 27 -11 52 -30 107 -82
247 -123 417 -123 145 0 208 14 330 75 81 40 127 73 245 176 73 64 229 159
302 185 55 19 223 45 278 43 61 -3 117 22 126 55 19 76 -24 134 -195 263 -25
20 -48 38 -51 42 -3 3 -23 19 -45 36 -22 16 -85 73 -139 128 l-99 98 54 55
c29 30 56 54 59 54 24 0 153 -138 290 -310 66 -82 163 -195 169 -196 3 0 20
-6 36 -13 22 -9 39 -10 66 -2 45 14 56 38 64 146 10 137 35 246 72 320 42 86
166 261 181 257 7 -1 11 2 10 6 -4 11 74 112 82 107 4 -2 7 1 7 8 0 7 11 30
25 52 112 181 138 416 68 620 -11 33 -22 65 -24 70 -1 6 -12 26 -24 45 -11 19
-21 38 -22 43 0 4 -8 15 -17 25 -45 47 -138 166 -135 174 1 4 -2 8 -7 8 -11 0
-98 118 -103 139 -2 8 -10 22 -19 32 -41 42 -82 203 -95 364 -3 50 -7 94 -8
100 -3 24 -46 45 -91 45 -42 0 -50 -4 -93 -47 -26 -27 -94 -106 -151 -178
-122 -153 -171 -206 -183 -199 -5 3 -7 1 -6 -4 4 -11 -60 -75 -83 -84 -11 -4
-33 10 -68 46 -43 43 -50 55 -38 64 8 7 18 8 22 4 5 -4 5 -1 1 6 -10 17 94
120 239 235 227 179 260 217 253 287 -5 54 -40 72 -160 81 -126 10 -216 26
-245 45 -12 8 -29 14 -37 14 -23 0 -77 36 -68 45 4 5 1 5 -5 1 -7 -4 -39 11
-74 36 -34 24 -71 50 -83 58 -11 8 -57 44 -101 81 -44 37 -97 78 -117 92 -20
13 -34 28 -30 32 4 5 2 5 -5 2 -6 -4 -33 2 -60 14 -100 43 -137 51 -278 55
-116 3 -152 1 -208 -15z"/>
</g>
</svg>
